<svg xmlns="http://www.w3.org/2000/svg" width="24" height="24" viewBox="0 0 24 24">
    <defs>
        <clipPath id="nt3tfaxbha">
            <path fill="#2e9dff" stroke="#707070" d="M0 0H24V24H0z"/>
        </clipPath>
    </defs>
    <g clip-path="url(#nt3tfaxbha)">
        <path fill="#2e9dff" d="M7.551 20.2a2.561 2.561 0 0 0 2.038 1h3.538l-.21 3.166a2.671 2.671 0 0 0 .736 2.046 2.572 2.572 0 0 0 1.947.788 1.955 1.955 0 0 0 1.769-1.255l1.872-4.745h1.211a.792.792 0 0 0 .792-.792V9.788A.792.792 0 0 0 20.452 9h-8.671a3.119 3.119 0 0 0-3.011 2.371l-1.69 6.573a2.628 2.628 0 0 0 .471 2.256zm15.672 1h3.166a.792.792 0 0 0 .792-.792V9.788A.792.792 0 0 0 26.388 9h-3.166a.792.792 0 0 0-.792.792v10.614a.792.792 0 0 0 .792.794z" transform="translate(-5.09 -5.1)"/>
    </g>
</svg>
